<?xml version="1.0" encoding="iso-8859-1"?>
<!-- Generator: Adobe Illustrator 19.0.0, SVG Export Plug-In . SVG Version: 6.00 Build 0)  -->
<svg version="1.1" id="Capa_1" xmlns="http://www.w3.org/2000/svg" xmlns:xlink="http://www.w3.org/1999/xlink" x="0px" y="0px"
	 viewBox="0 0 512.003 512.003" style="enable-background:new 0 0 512.003 512.003;" xml:space="preserve">
<path style="fill:#F2BB80;" d="M136.589,149.248l17.045,59.659h-17.045c0,23.531-19.082,42.613-42.613,42.613l0,0
	c-23.531,0-42.613-19.082-42.613-42.613v-59.659c0-14.122,11.446-25.568,25.568-25.568h34.091
	C125.143,123.68,136.589,135.126,136.589,149.248z"/>
<path style="fill:#4398D1;" d="M332.61,4.363H179.202c-14.122,0-25.568,11.446-25.568,25.568v51.136
	c0,14.122,11.446,25.568,25.568,25.568l0,0v25.568l42.613-25.568H332.61c14.122,0,25.568-11.446,25.568-25.568V29.931
	C358.178,15.809,346.733,4.363,332.61,4.363z"/>
<path style="fill:#87CED9;" d="M468.973,362.315H366.701v-76.704c0-18.827,15.264-34.091,34.091-34.091h34.091
	c18.827,0,34.091,15.264,34.091,34.091V362.315z"/>
<path style="fill:#4398D1;" d="M42.839,362.315h102.272v-76.704c0-18.827-15.264-34.091-34.091-34.091H76.93
	c-18.827,0-34.091,15.264-34.091,34.091C42.839,285.611,42.839,362.315,42.839,362.315z"/>
<circle style="fill:#6B402A;" cx="102.532" cy="183.339" r="8.523"/>
<path style="fill:#126099;" d="M42.839,362.315L42.839,362.315c0,23.531,19.082,42.613,42.613,42.613h59.659v102.272h59.659
	l-17.045-25.568v-85.227c0-18.827-15.264-34.091-34.091-34.091H42.839z"/>
<path style="fill:#D1D1D1;" d="M113.748,490.582l-45.341-15.085V439.02H51.362v36.477L6.021,490.582
	c-4.585,1.508-7.091,6.452-5.582,11.037c1.509,4.585,6.452,7.091,11.037,5.582l48.409-16.619l48.409,16.619
	c0.903,0.119,1.824,0.119,2.727,0c3.665,0.009,6.92-2.327,8.097-5.795c1.517-4.457-0.869-9.298-5.327-10.807
	C113.782,490.59,113.765,490.582,113.748,490.582z"/>
<rect x="85.487" y="251.521" style="fill:#126099;" width="17.045" height="85.227"/>
<path style="fill:#6B402A;" d="M111.021,157.771H76.93l-25.568,34.091v-42.613c0-14.122,11.446-25.568,25.568-25.568h68.181
	C145.111,142.507,129.856,157.771,111.021,157.771z"/>
<path style="fill:#F2BB80;" d="M375.224,149.248l-17.045,59.659h17.045c0,23.531,19.082,42.613,42.613,42.613l0,0
	c23.531,0,42.613-19.082,42.613-42.613v-59.659H375.224z"/>
<path style="fill:#6B402A;" d="M460.451,149.248L460.451,149.248c0-14.122-11.446-25.568-25.568-25.568h-63.92
	c-7.057,0-12.784,5.727-12.784,12.784s5.727,12.784,12.784,12.784h55.397l34.091,42.613V149.248z"/>
<g>
	<rect x="179.236" y="29.931" style="fill:#3582BD;" width="153.408" height="17.045"/>
	<rect x="179.236" y="64.022" style="fill:#3582BD;" width="34.091" height="17.045"/>
	<rect x="230.372" y="64.022" style="fill:#3582BD;" width="102.272" height="17.045"/>
</g>
<path style="fill:#87CED9;" d="M307.042,106.635c14.122,0,25.568,11.446,25.568,25.568v17.045c0,14.122-11.446,25.568-25.568,25.568
	h-17.045v25.568l-42.613-25.568h-25.568c-14.122,0-25.568-11.446-25.568-25.568v-17.045c0-14.122,11.446-25.568,25.568-25.568
	C221.816,106.635,307.042,106.635,307.042,106.635z"/>
<rect x="145.146" y="319.702" style="fill:#6B402A;" width="221.59" height="25.568"/>
<path style="fill:#D1D1D1;" d="M505.791,490.582l-45.341-15.085V439.02h-17.045v36.477l-45.341,15.085
	c-4.474,1.508-6.878,6.349-5.369,10.824c1.508,4.474,6.349,6.878,10.824,5.369l48.409-16.193l48.409,16.619
	c0.903,0.119,1.824,0.119,2.727,0c3.818,0.196,7.304-2.173,8.523-5.795c1.449-4.483-1.006-9.281-5.489-10.73
	C506.004,490.642,505.902,490.607,505.791,490.582z"/>
<rect x="409.349" y="251.521" style="fill:#4398D1;" width="17.045" height="85.227"/>
<g>
	<path style="fill:#6B402A;" d="M42.839,404.929h51.136c9.418,0,17.045,7.628,17.045,17.045l0,0c0,9.418-7.628,17.045-17.045,17.045
		H34.317c-14.122,0-25.568-11.446-25.568-25.568V294.134c0-9.418,7.628-17.045,17.045-17.045l0,0
		c9.418,0,17.045,7.628,17.045,17.045V404.929z"/>
	<path style="fill:#6B402A;" d="M468.973,404.929h-51.136c-9.418,0-17.045,7.628-17.045,17.045l0,0
		c0,9.418,7.628,17.045,17.045,17.045h59.659c14.122,0,25.568-11.446,25.568-25.568V294.134c0-9.418-7.628-17.045-17.045-17.045l0,0
		c-9.418,0-17.045,7.628-17.045,17.045V404.929z"/>
</g>
<path style="fill:#D1D1D1;" d="M221.816,319.702h-76.704v-17.045h70.823l23.437-62.642l16.023,5.966l-25.568,68.181
	C228.583,317.503,225.387,319.711,221.816,319.702z"/>
<path style="fill:#126099;" d="M468.973,362.315L468.973,362.315c0,23.531-19.082,42.613-42.613,42.613h-59.659v102.272h-59.659
	l17.045-25.568v-85.227c0-18.827,15.264-34.091,34.091-34.091H468.973z"/>
<polygon style="fill:#D1D1D1;" points="264.429,490.156 264.429,345.27 247.384,345.27 247.384,490.156 204.77,490.156 
	204.77,507.201 307.042,507.201 307.042,490.156 "/>
<g>
	<rect x="221.85" y="132.203" style="fill:#539FBD;" width="51.136" height="17.045"/>
	<rect x="290.031" y="132.203" style="fill:#539FBD;" width="17.045" height="17.045"/>
</g>
<circle style="fill:#6B402A;" cx="400.826" cy="183.339" r="8.523"/>
<g>
</g>
<g>
</g>
<g>
</g>
<g>
</g>
<g>
</g>
<g>
</g>
<g>
</g>
<g>
</g>
<g>
</g>
<g>
</g>
<g>
</g>
<g>
</g>
<g>
</g>
<g>
</g>
<g>
</g>
</svg>
