<?xml version="1.0" encoding="UTF-8" standalone="no"?><!DOCTYPE svg PUBLIC "-//W3C//DTD SVG 1.1//EN" "http://www.w3.org/Graphics/SVG/1.1/DTD/svg11.dtd"><svg width="100%" height="100%" viewBox="0 0 1280 720" version="1.1" xmlns="http://www.w3.org/2000/svg" xmlns:xlink="http://www.w3.org/1999/xlink" xml:space="preserve" style="fill-rule:evenodd;clip-rule:evenodd;stroke-linejoin:round;stroke-miterlimit:1.41421;"><g><path d="M577.3,230.306c32,0 52.6,-16.2 52.6,-39.2c0,-20 -17.6,-30.6 -31.2,-32c14.8,-2.6 29.2,-13.6 29.2,-30.4c0,-22.2 -19.2,-36.2 -50.4,-36.2c-23.4,0 -40.2,9 -51,21.2l14.2,17.8c9.4,-9 21,-13.8 33.8,-13.8c14,0 24.8,5.2 24.8,15.8c0,9.8 -9.8,14.2 -24.6,14.2c-5,0 -14.2,0 -16.6,-0.2l0,25.6c2,-0.2 11,-0.4 16.6,-0.4c18.6,0 26.8,4.8 26.8,15.4c0,10 -9,17 -25.2,17c-13,0 -27.6,-5.6 -36.8,-15.2l-14.8,19c9.8,12 28,21.4 52.6,21.4Z" style="fill:url(#_Linear1);fill-rule:nonzero;"/><path d="M700.1,230.306c38,0 55.2,-34.6 55.2,-69c0,-34.4 -17.2,-68.8 -55.2,-68.8c-38.2,0 -55.2,34.4 -55.2,68.8c0,34.4 17,69 55.2,69Zm0,-25.2c-19.2,0 -26.4,-19.2 -26.4,-43.8c0,-24.6 7.2,-43.6 26.4,-43.6c19,0 26.2,19 26.2,43.6c0,24.6 -7.2,43.8 -26.2,43.8Z" style="fill:url(#_Linear2);fill-rule:nonzero;"/></g><g><path d="M626.248,334.527c9.696,0 16.752,-6.912 16.752,-16.56c0,-9.648 -7.056,-16.56 -16.752,-16.56c-9.648,0 -16.704,6.912 -16.704,16.56c0,9.648 7.056,16.56 16.704,16.56Zm0,-6.048c-5.904,0 -9.696,-4.56 -9.696,-10.512c0,-6 3.792,-10.512 9.696,-10.512c5.904,0 9.744,4.512 9.744,10.512c0,5.952 -3.84,10.512 -9.744,10.512Z" style="fill:url(#_Linear3);fill-rule:nonzero;"/><path d="M654.616,333.951l0,-13.248l15.504,0l0,-6l-15.504,0l0,-6.768l15.84,0l0,-6l-22.656,0l0,32.016l6.816,0Z" style="fill:url(#_Linear4);fill-rule:nonzero;"/></g><g><path d="M539.392,275.5c8.906,0 13.21,-4.552 13.21,-10.588c0,-12.319 -18.949,-8.806 -18.949,-14.051c0,-1.979 1.682,-3.315 4.7,-3.315c3.364,0 6.927,1.138 9.598,3.612l3.909,-5.145c-3.266,-3.018 -7.619,-4.601 -12.864,-4.601c-7.767,0 -12.517,4.551 -12.517,10.043c0,12.418 18.999,8.411 18.999,14.249c0,1.88 -1.881,3.661 -5.74,3.661c-4.551,0 -8.163,-2.028 -10.488,-4.453l-3.81,5.344c3.067,3.117 7.619,5.244 13.952,5.244Z" style="fill:url(#_Linear5);fill-rule:nonzero;"/><path d="M580.704,274.906l0,-6.184l-16.327,0l0,-7.471l15.981,0l0,-6.184l-15.981,0l0,-6.976l16.327,0l0,-6.185l-23.352,0l0,33l23.352,0Z" style="fill:url(#_Linear6);fill-rule:nonzero;"/><path d="M602.176,275.5c7.273,0 11.429,-4.007 13.804,-8.114l-6.036,-2.919c-1.386,2.721 -4.354,4.799 -7.768,4.799c-5.986,0 -10.34,-4.601 -10.34,-10.835c0,-6.234 4.354,-10.835 10.34,-10.835c3.414,0 6.382,2.127 7.768,4.799l6.036,-2.968c-2.326,-4.107 -6.531,-8.065 -13.804,-8.065c-9.895,0 -17.564,6.927 -17.564,17.069c0,10.142 7.669,17.069 17.564,17.069Z" style="fill:url(#_Linear7);fill-rule:nonzero;"/><path d="M635.819,275.5c9.994,0 17.267,-7.124 17.267,-17.069c0,-9.944 -7.273,-17.069 -17.267,-17.069c-9.944,0 -17.217,7.125 -17.217,17.069c0,9.945 7.273,17.069 17.217,17.069Zm0,-6.234c-6.085,0 -9.994,-4.7 -9.994,-10.835c0,-6.184 3.909,-10.835 9.994,-10.835c6.086,0 10.044,4.651 10.044,10.835c0,6.135 -3.958,10.835 -10.044,10.835Z" style="fill:url(#_Linear8);fill-rule:nonzero;"/><path d="M687.57,274.906l0,-33l-7.025,0l0,20.73l-15.288,-20.73l-7.223,0l0,33l7.025,0l0,-21.521l15.733,21.521l6.778,0Z" style="fill:url(#_Linear9);fill-rule:nonzero;"/><path d="M707.113,274.906c10.341,0 17.514,-6.53 17.514,-16.475c0,-9.944 -7.173,-16.525 -17.514,-16.525l-13.012,0l0,33l13.012,0Zm0,-6.184l-5.986,0l0,-20.631l5.986,0c6.778,0 10.341,4.502 10.341,10.34c0,5.591 -3.81,10.291 -10.341,10.291Z" style="fill:url(#_Linear10);fill-rule:nonzero;"/><path d="M741.35,275.5c8.906,0 13.21,-4.552 13.21,-10.588c0,-12.319 -18.949,-8.806 -18.949,-14.051c0,-1.979 1.682,-3.315 4.7,-3.315c3.364,0 6.927,1.138 9.598,3.612l3.909,-5.145c-3.266,-3.018 -7.619,-4.601 -12.864,-4.601c-7.767,0 -12.517,4.551 -12.517,10.043c0,12.418 18.999,8.411 18.999,14.249c0,1.88 -1.881,3.661 -5.74,3.661c-4.551,0 -8.163,-2.028 -10.488,-4.453l-3.81,5.344c3.068,3.117 7.619,5.244 13.952,5.244Z" style="fill:url(#_Linear11);fill-rule:nonzero;"/></g><g><rect x="484.372" y="551.427" width="7.668" height="36.018" style="fill:url(#_Linear12);fill-rule:nonzero;"/><path d="M531.406,587.445l0,-36.018l-7.668,0l0,22.626l-16.686,-22.626l-7.884,0l0,36.018l7.668,0l0,-23.49l17.172,23.49l7.398,0Z" style="fill:url(#_Linear13);fill-rule:nonzero;"/><path d="M554.572,587.445l0,-29.268l10.476,0l0,-6.75l-28.728,0l0,6.75l10.53,0l0,29.268l7.722,0Z" style="fill:url(#_Linear14);fill-rule:nonzero;"/><path d="M595.45,587.445l0,-6.75l-17.82,0l0,-8.154l17.442,0l0,-6.75l-17.442,0l0,-7.614l17.82,0l0,-6.75l-25.488,0l0,36.018l25.488,0Z" style="fill:url(#_Linear15);fill-rule:nonzero;"/><path d="M630.604,587.445l-8.1,-13.716c3.888,-0.918 7.884,-4.32 7.884,-10.692c0,-6.696 -4.59,-11.61 -12.096,-11.61l-16.848,0l0,36.018l7.668,0l0,-12.798l5.616,0l7.074,12.798l8.802,0Zm-13.446,-19.548l-8.046,0l0,-9.72l8.046,0c3.078,0 5.4,1.836 5.4,4.86c0,3.024 -2.322,4.86 -5.4,4.86Z" style="fill:url(#_Linear16);fill-rule:nonzero;"/><path d="M655.336,587.445l13.878,-36.018l-8.748,0l-9.936,27.702l-9.99,-27.702l-8.748,0l13.932,36.018l9.612,0Z" style="fill:url(#_Linear17);fill-rule:nonzero;"/><rect x="672.562" y="551.427" width="7.668" height="36.018" style="fill:url(#_Linear18);fill-rule:nonzero;"/><path d="M712.846,587.445l0,-6.75l-17.82,0l0,-8.154l17.442,0l0,-6.75l-17.442,0l0,-7.614l17.82,0l0,-6.75l-25.488,0l0,36.018l25.488,0Z" style="fill:url(#_Linear19);fill-rule:nonzero;"/><path d="M754.534,587.445l10.26,-36.018l-8.64,0l-6.264,26.028l-6.804,-26.028l-5.994,0l-6.858,26.028l-6.318,-26.028l-8.586,0l10.314,36.018l8.154,0l6.264,-24.732l6.318,24.732l8.154,0Z" style="fill:url(#_Linear20);fill-rule:nonzero;"/><path d="M781.21,588.093c9.72,0 14.418,-4.968 14.418,-11.556c0,-13.446 -20.682,-9.612 -20.682,-15.336c0,-2.16 1.836,-3.618 5.13,-3.618c3.672,0 7.56,1.242 10.476,3.942l4.266,-5.616c-3.564,-3.294 -8.316,-5.022 -14.04,-5.022c-8.478,0 -13.662,4.968 -13.662,10.962c0,13.554 20.736,9.18 20.736,15.552c0,2.052 -2.052,3.996 -6.264,3.996c-4.968,0 -8.91,-2.214 -11.448,-4.86l-4.158,5.832c3.348,3.402 8.316,5.724 15.228,5.724Z" style="fill:url(#_Linear21);fill-rule:nonzero;"/></g><path d="M570.555,385.309c0,-9.244 -7.505,-16.75 -16.75,-16.75l-33.5,0c-9.244,0 -16.75,7.506 -16.75,16.75l0,48.5c0,9.245 7.506,16.75 16.75,16.75l33.5,0c9.245,0 16.75,-7.505 16.75,-16.75l0,-48.5Z" style="fill:url(#_Linear22);"/><path d="M536.984,428.559l0,-16l200,0l0,16l-90,0l0,93l27,0l0,10l-66,0l0,-10l29,0l0,-93l-100,0Z" style="fill:url(#_Linear23);"/><path d="M536.85,465.504c5.52,0 10,4.481 10,10c0,5.519 -4.481,10 -10,10l-43,0c-5.519,0 -10,-4.481 -10,-10c0,-0.059 0.001,-0.117 0.002,-0.175c-0.001,-0.059 -0.002,-0.118 -0.002,-0.178l0,-83.795c0,-5.714 4.639,-10.352 10.353,-10.352c5.713,0 10.352,4.638 10.352,10.352l0,74.148l32.295,0Z" style="fill:url(#_Linear24);"/><path d="M761.66,481.559c-2.878,0 -5.215,2.537 -5.215,5.662l0,15.818c0,1.225 0.359,2.36 0.97,3.287l-30.51,12.692c-2.688,1.118 -4.034,4.395 -3.004,7.313l0.562,1.591c1.03,2.918 4.048,4.38 6.736,3.261l31.451,-13.083l31.45,13.083c2.688,1.119 5.706,-0.343 6.736,-3.261l0.562,-1.591c1.03,-2.918 -0.316,-6.195 -3.004,-7.313l-30.833,-12.827c0.558,-0.901 0.884,-1.986 0.884,-3.152l0,-15.818c0,-3.125 -2.337,-5.662 -5.215,-5.662l-1.57,0Z" style="fill:url(#_Linear25);"/><path d="M514.361,481.559c-2.879,0 -5.216,2.537 -5.216,5.662l0,15.818c0,1.225 0.36,2.36 0.97,3.287l-30.509,12.692c-2.688,1.118 -4.034,4.395 -3.004,7.313l0.562,1.591c1.03,2.918 4.048,4.38 6.736,3.261l31.45,-13.083l31.451,13.083c2.688,1.119 5.706,-0.343 6.736,-3.261l0.562,-1.591c1.03,-2.918 -0.316,-6.195 -3.004,-7.313l-30.833,-12.827c0.558,-0.901 0.883,-1.986 0.883,-3.152l0,-15.818c0,-3.125 -2.336,-5.662 -5.215,-5.662l-1.569,0Z" style="fill:url(#_Linear26);"/><path d="M741.15,465.504c-5.52,0 -10,4.481 -10,10c0,5.519 4.481,10 10,10l43,0c5.519,0 10,-4.481 10,-10c0,-0.059 -0.001,-0.117 -0.002,-0.175c0.001,-0.059 0.002,-0.118 0.002,-0.178l0,-83.795c0,-5.714 -4.639,-10.352 -10.353,-10.352c-5.713,0 -10.352,4.638 -10.352,10.352l0,74.148l-32.295,0Z" style="fill:url(#_Linear27);"/><path d="M503.555,442.559c0,0 4.777,24.069 36,24c31.223,-0.069 30,0 30,0l0,65l38,0l-10,-17l0,-55c0,0 -3.457,-23.068 -28,-21.75c-24.542,1.319 -66,0 -66,0l0,4.75Z" style="fill:url(#_Linear28);"/><path d="M562.555,302.561l12,40l-12,0c0,0 3.764,13.773 -10,22c-13.764,8.228 -30,1 -30,1c0,0 -11.78,-5.229 -13,-25c-1.22,-19.77 5.795,-36 5.795,-36l47.205,-2Z" style="fill:url(#_Linear29);"/><path d="M509.555,330.559l0,-34c0,0 6.011,-10.221 12,-10c5.989,0.222 49,0 49,0c0,0 -2.588,11.396 -7,15c-4.412,3.605 -8.67,6.485 -15,7c-6.33,0.516 -24,0 -24,0l-15,22Z" style="fill:url(#_Linear30);"/><path d="M711.555,385.811c0,-9.244 7.506,-16.75 16.75,-16.75l33.5,0c9.245,0 16.75,7.506 16.75,16.75l0,48.5c0,9.245 -7.505,16.75 -16.75,16.75l-33.5,0c-9.244,0 -16.75,-7.505 -16.75,-16.75l0,-48.5Z" style="fill:url(#_Linear31);"/><path d="M778.555,442.559c0,0 -4.777,24.069 -36,24c-31.223,-0.069 -30,0 -30,0l0,65l-38,0l10,-17l0,-55c0,0 3.458,-23.068 28,-21.75c24.543,1.319 66,0 66,0l0,4.75Z" style="fill:url(#_Linear32);"/><path d="M716.413,304.013l-12,40l12,0c0,0 -3.764,13.772 10,22c13.764,8.227 30,1 30,1c0,0 11.78,-5.23 13,-25c1.22,-19.771 -5.796,-36 -5.796,-36l-47.204,-2Z" style="fill:url(#_Linear33);"/><path d="M769.555,331.061l0,-34c0,0 -6.011,-10.222 -12,-10c-5.989,0.222 -49,0 -49,0c0,0 2.588,11.395 7,15c4.412,3.605 8.67,6.485 15,7c6.33,0.515 24,0 24,0l15,22Z" style="fill:url(#_Linear34);"/><path d="M639.555,355.74l-19.555,51.26l-49.445,0l-570.555,313l0,-720l639.555,355.74Z" style="fill:url(#_Linear35);"/><path d="M619.885,404.559l17.116,-47.009c0.52,-1.426 2.099,-2.162 3.525,-1.643l5.168,1.882c1.426,0.519 2.163,2.098 1.643,3.525l-17.718,48.661c-0.02,0.055 -0.041,0.108 -0.064,0.16l0,0.424c0,1.104 -0.896,2 -2,2l-55,0c-1.104,0 -2,-0.896 -2,-2l0,-4c0,-1.103 0.896,-2 2,-2l47.33,0Z" style="fill:url(#_Linear36);"/><circle cx="604.055" cy="385.65" r="1.5" style="fill:#e2f9ff;fill-opacity:0.5;"/><circle cx="583.055" cy="353.24" r="1.5" style="fill:#e2f9ff;fill-opacity:0.5;"/><circle cx="618.555" cy="386.15" r="1" style="fill:#e2f9ff;fill-opacity:0.976867;"/><circle cx="578.555" cy="372.15" r="1" style="fill:#e2f9ff;fill-opacity:0.5;"/><circle cx="557.945" cy="391.232" r="1" style="fill:#e2f9ff;fill-opacity:0.158392;"/><circle cx="615.555" cy="397" r="1" style="fill:#e2f9ff;fill-opacity:0.75;"/><circle cx="614.055" cy="368.496" r="0.5" style="fill:#e2f9ff;"/><circle cx="579.055" cy="392.732" r="0.5" style="fill:#e2f9ff;fill-opacity:0.5;"/><circle cx="580.055" cy="367.996" r="0.5" style="fill:#e2f9ff;fill-opacity:0.5;"/><circle cx="557.945" cy="372.061" r="0.5" style="fill:#e2f9ff;fill-opacity:0.174039;"/><circle cx="595.945" cy="353.74" r="0.5" style="fill:#e2f9ff;fill-opacity:0.5;"/><circle cx="580.055" cy="330.059" r="0.5" style="fill:#e2f9ff;fill-opacity:0.5;"/><circle cx="451.756" cy="358.5" r="2.5" style="fill:url(#_Linear37);"/><circle cx="427.94" cy="237.862" r="2.5" style="fill:url(#_Linear38);"/><circle cx="488.94" cy="306.559" r="2.5" style="fill:url(#_Linear39);"/><circle cx="587.055" cy="346.991" r="0.5" style="fill:#b2bbff;fill-opacity:0.5;"/><circle cx="573.555" cy="326.491" r="1" style="fill:#b2bbff;fill-opacity:0.5;"/><circle cx="416.44" cy="318.967" r="1" style="fill:#b2bbff;fill-opacity:0.25;"/><circle cx="550.85" cy="354.74" r="1" style="fill:#b2bbff;fill-opacity:0.5;"/><circle cx="608.044" cy="358.5" r="1.5" style="fill:#b2bbff;fill-opacity:0.5;"/><defs><linearGradient id="_Linear1" x1="0" y1="0" x2="1" y2="0" gradientUnits="userSpaceOnUse" gradientTransform="matrix(8.11212e-15,132.481,-132.481,8.11212e-15,600.978,97)"><stop offset="0%" style="stop-color:#47327d;stop-opacity:1"/><stop offset="100%" style="stop-color:#9876b6;stop-opacity:1"/></linearGradient><linearGradient id="_Linear2" x1="0" y1="0" x2="1" y2="0" gradientUnits="userSpaceOnUse" gradientTransform="matrix(8.11212e-15,132.481,-132.481,8.11212e-15,600.978,97)"><stop offset="0%" style="stop-color:#47327d;stop-opacity:1"/><stop offset="100%" style="stop-color:#9876b6;stop-opacity:1"/></linearGradient><linearGradient id="_Linear3" x1="0" y1="0" x2="1" y2="0" gradientUnits="userSpaceOnUse" gradientTransform="matrix(5.5364e-15,90.4163,-90.4163,5.5364e-15,688.19,245.109)"><stop offset="0%" style="stop-color:#080015;stop-opacity:0.474631"/><stop offset="100%" style="stop-color:#56287f;stop-opacity:0.474631"/></linearGradient><linearGradient id="_Linear4" x1="0" y1="0" x2="1" y2="0" gradientUnits="userSpaceOnUse" gradientTransform="matrix(5.5364e-15,90.4163,-90.4163,5.5364e-15,688.19,245.109)"><stop offset="0%" style="stop-color:#080015;stop-opacity:0.474631"/><stop offset="100%" style="stop-color:#56287f;stop-opacity:0.474631"/></linearGradient><linearGradient id="_Linear5" x1="0" y1="0" x2="1" y2="0" gradientUnits="userSpaceOnUse" gradientTransform="matrix(2.88352e-15,-47.0914,47.0914,2.88352e-15,643,288.453)"><stop offset="0%" style="stop-color:#d8a6ff;stop-opacity:1"/><stop offset="100%" style="stop-color:#9776bb;stop-opacity:1"/></linearGradient><linearGradient id="_Linear6" x1="0" y1="0" x2="1" y2="0" gradientUnits="userSpaceOnUse" gradientTransform="matrix(2.88352e-15,-47.0914,47.0914,2.88352e-15,643,288.453)"><stop offset="0%" style="stop-color:#d8a6ff;stop-opacity:1"/><stop offset="100%" style="stop-color:#9776bb;stop-opacity:1"/></linearGradient><linearGradient id="_Linear7" x1="0" y1="0" x2="1" y2="0" gradientUnits="userSpaceOnUse" gradientTransform="matrix(2.88352e-15,-47.0914,47.0914,2.88352e-15,643,288.453)"><stop offset="0%" style="stop-color:#d8a6ff;stop-opacity:1"/><stop offset="100%" style="stop-color:#9776bb;stop-opacity:1"/></linearGradient><linearGradient id="_Linear8" x1="0" y1="0" x2="1" y2="0" gradientUnits="userSpaceOnUse" gradientTransform="matrix(2.88352e-15,-47.0914,47.0914,2.88352e-15,643,288.453)"><stop offset="0%" style="stop-color:#d8a6ff;stop-opacity:1"/><stop offset="100%" style="stop-color:#9776bb;stop-opacity:1"/></linearGradient><linearGradient id="_Linear9" x1="0" y1="0" x2="1" y2="0" gradientUnits="userSpaceOnUse" gradientTransform="matrix(2.88352e-15,-47.0914,47.0914,2.88352e-15,643,288.453)"><stop offset="0%" style="stop-color:#d8a6ff;stop-opacity:1"/><stop offset="100%" style="stop-color:#9776bb;stop-opacity:1"/></linearGradient><linearGradient id="_Linear10" x1="0" y1="0" x2="1" y2="0" gradientUnits="userSpaceOnUse" gradientTransform="matrix(2.88352e-15,-47.0914,47.0914,2.88352e-15,643,288.453)"><stop offset="0%" style="stop-color:#d8a6ff;stop-opacity:1"/><stop offset="100%" style="stop-color:#9776bb;stop-opacity:1"/></linearGradient><linearGradient id="_Linear11" x1="0" y1="0" x2="1" y2="0" gradientUnits="userSpaceOnUse" gradientTransform="matrix(2.88352e-15,-47.0914,47.0914,2.88352e-15,643,288.453)"><stop offset="0%" style="stop-color:#d8a6ff;stop-opacity:1"/><stop offset="100%" style="stop-color:#9776bb;stop-opacity:1"/></linearGradient><linearGradient id="_Linear12" x1="0" y1="0" x2="1" y2="0" gradientUnits="userSpaceOnUse" gradientTransform="matrix(4.99249e-15,81.5336,-81.5336,4.99249e-15,639.555,506.559)"><stop offset="0%" style="stop-color:#8d9ed8;stop-opacity:1"/><stop offset="100%" style="stop-color:#6c59a8;stop-opacity:1"/></linearGradient><linearGradient id="_Linear13" x1="0" y1="0" x2="1" y2="0" gradientUnits="userSpaceOnUse" gradientTransform="matrix(4.99249e-15,81.5336,-81.5336,4.99249e-15,639.555,506.559)"><stop offset="0%" style="stop-color:#8d9ed8;stop-opacity:1"/><stop offset="100%" style="stop-color:#6c59a8;stop-opacity:1"/></linearGradient><linearGradient id="_Linear14" x1="0" y1="0" x2="1" y2="0" gradientUnits="userSpaceOnUse" gradientTransform="matrix(4.99249e-15,81.5336,-81.5336,4.99249e-15,639.555,506.559)"><stop offset="0%" style="stop-color:#8d9ed8;stop-opacity:1"/><stop offset="100%" style="stop-color:#6c59a8;stop-opacity:1"/></linearGradient><linearGradient id="_Linear15" x1="0" y1="0" x2="1" y2="0" gradientUnits="userSpaceOnUse" gradientTransform="matrix(4.99249e-15,81.5336,-81.5336,4.99249e-15,639.555,506.559)"><stop offset="0%" style="stop-color:#8d9ed8;stop-opacity:1"/><stop offset="100%" style="stop-color:#6c59a8;stop-opacity:1"/></linearGradient><linearGradient id="_Linear16" x1="0" y1="0" x2="1" y2="0" gradientUnits="userSpaceOnUse" gradientTransform="matrix(4.99249e-15,81.5336,-81.5336,4.99249e-15,639.555,506.559)"><stop offset="0%" style="stop-color:#8d9ed8;stop-opacity:1"/><stop offset="100%" style="stop-color:#6c59a8;stop-opacity:1"/></linearGradient><linearGradient id="_Linear17" x1="0" y1="0" x2="1" y2="0" gradientUnits="userSpaceOnUse" gradientTransform="matrix(4.99249e-15,81.5336,-81.5336,4.99249e-15,639.555,506.559)"><stop offset="0%" style="stop-color:#8d9ed8;stop-opacity:1"/><stop offset="100%" style="stop-color:#6c59a8;stop-opacity:1"/></linearGradient><linearGradient id="_Linear18" x1="0" y1="0" x2="1" y2="0" gradientUnits="userSpaceOnUse" gradientTransform="matrix(4.99249e-15,81.5336,-81.5336,4.99249e-15,639.555,506.559)"><stop offset="0%" style="stop-color:#8d9ed8;stop-opacity:1"/><stop offset="100%" style="stop-color:#6c59a8;stop-opacity:1"/></linearGradient><linearGradient id="_Linear19" x1="0" y1="0" x2="1" y2="0" gradientUnits="userSpaceOnUse" gradientTransform="matrix(4.99249e-15,81.5336,-81.5336,4.99249e-15,639.555,506.559)"><stop offset="0%" style="stop-color:#8d9ed8;stop-opacity:1"/><stop offset="100%" style="stop-color:#6c59a8;stop-opacity:1"/></linearGradient><linearGradient id="_Linear20" x1="0" y1="0" x2="1" y2="0" gradientUnits="userSpaceOnUse" gradientTransform="matrix(4.99249e-15,81.5336,-81.5336,4.99249e-15,639.555,506.559)"><stop offset="0%" style="stop-color:#8d9ed8;stop-opacity:1"/><stop offset="100%" style="stop-color:#6c59a8;stop-opacity:1"/></linearGradient><linearGradient id="_Linear21" x1="0" y1="0" x2="1" y2="0" gradientUnits="userSpaceOnUse" gradientTransform="matrix(4.99249e-15,81.5336,-81.5336,4.99249e-15,639.555,506.559)"><stop offset="0%" style="stop-color:#8d9ed8;stop-opacity:1"/><stop offset="100%" style="stop-color:#6c59a8;stop-opacity:1"/></linearGradient><linearGradient id="_Linear22" x1="0" y1="0" x2="1" y2="0" gradientUnits="userSpaceOnUse" gradientTransform="matrix(-77,48,-48,-77,580.555,392.559)"><stop offset="0%" style="stop-color:#2b134a;stop-opacity:1"/><stop offset="100%" style="stop-color:#312054;stop-opacity:1"/></linearGradient><linearGradient id="_Linear23" x1="0" y1="0" x2="1" y2="0" gradientUnits="userSpaceOnUse" gradientTransform="matrix(200,0,0,119,536.984,472.059)"><stop offset="0%" style="stop-color:#2b134a;stop-opacity:1"/><stop offset="100%" style="stop-color:#312054;stop-opacity:1"/></linearGradient><linearGradient id="_Linear24" x1="0" y1="0" x2="1" y2="0" gradientUnits="userSpaceOnUse" gradientTransform="matrix(63,0,0,104.5,483.85,433.254)"><stop offset="0%" style="stop-color:#2b134a;stop-opacity:1"/><stop offset="100%" style="stop-color:#312054;stop-opacity:1"/></linearGradient><linearGradient id="_Linear25" x1="0" y1="0" x2="1" y2="0" gradientUnits="userSpaceOnUse" gradientTransform="matrix(-78.1891,0,0,50,801.744,506.559)"><stop offset="0%" style="stop-color:#2b134a;stop-opacity:1"/><stop offset="100%" style="stop-color:#312054;stop-opacity:1"/></linearGradient><linearGradient id="_Linear26" x1="0" y1="0" x2="1" y2="0" gradientUnits="userSpaceOnUse" gradientTransform="matrix(-78.1891,0,0,50,554.445,506.559)"><stop offset="0%" style="stop-color:#2b134a;stop-opacity:1"/><stop offset="100%" style="stop-color:#312054;stop-opacity:1"/></linearGradient><linearGradient id="_Linear27" x1="0" y1="0" x2="1" y2="0" gradientUnits="userSpaceOnUse" gradientTransform="matrix(-63,0,0,104.5,794.15,433.254)"><stop offset="0%" style="stop-color:#2b134a;stop-opacity:1"/><stop offset="100%" style="stop-color:#312054;stop-opacity:1"/></linearGradient><linearGradient id="_Linear28" x1="0" y1="0" x2="1" y2="0" gradientUnits="userSpaceOnUse" gradientTransform="matrix(-32,22,-22,-32,598.555,454.559)"><stop offset="0%" style="stop-color:#2b134a;stop-opacity:1"/><stop offset="100%" style="stop-color:#312054;stop-opacity:1"/></linearGradient><linearGradient id="_Linear29" x1="0" y1="0" x2="1" y2="0" gradientUnits="userSpaceOnUse" gradientTransform="matrix(65.1425,0,0,65.9353,509.413,335.529)"><stop offset="0%" style="stop-color:#2b134a;stop-opacity:1"/><stop offset="100%" style="stop-color:#312054;stop-opacity:1"/></linearGradient><linearGradient id="_Linear30" x1="0" y1="0" x2="1" y2="0" gradientUnits="userSpaceOnUse" gradientTransform="matrix(61,0,0,44.0036,509.555,308.558)"><stop offset="0%" style="stop-color:#513477;stop-opacity:1"/><stop offset="100%" style="stop-color:#7e69aa;stop-opacity:1"/></linearGradient><linearGradient id="_Linear31" x1="0" y1="0" x2="1" y2="0" gradientUnits="userSpaceOnUse" gradientTransform="matrix(77,48,48,-77,701.555,393.061)"><stop offset="0%" style="stop-color:#2b134a;stop-opacity:1"/><stop offset="100%" style="stop-color:#312054;stop-opacity:1"/></linearGradient><linearGradient id="_Linear32" x1="0" y1="0" x2="1" y2="0" gradientUnits="userSpaceOnUse" gradientTransform="matrix(32,22,22,-32,683.555,454.559)"><stop offset="0%" style="stop-color:#2b134a;stop-opacity:1"/><stop offset="100%" style="stop-color:#312054;stop-opacity:1"/></linearGradient><linearGradient id="_Linear33" x1="0" y1="0" x2="1" y2="0" gradientUnits="userSpaceOnUse" gradientTransform="matrix(-65.1425,0,0,65.9353,769.555,336.98)"><stop offset="0%" style="stop-color:#2b134a;stop-opacity:1"/><stop offset="100%" style="stop-color:#312054;stop-opacity:1"/></linearGradient><linearGradient id="_Linear34" x1="0" y1="0" x2="1" y2="0" gradientUnits="userSpaceOnUse" gradientTransform="matrix(-61,0,0,44.0036,769.555,309.059)"><stop offset="0%" style="stop-color:#513477;stop-opacity:1"/><stop offset="100%" style="stop-color:#7e69aa;stop-opacity:1"/></linearGradient><linearGradient id="_Linear35" x1="0" y1="0" x2="1" y2="0" gradientUnits="userSpaceOnUse" gradientTransform="matrix(625,82.7429,-82.7429,625,0,301.407)"><stop offset="0%" style="stop-color:#000;stop-opacity:0"/><stop offset="32%" style="stop-color:#283277;stop-opacity:0.0196078"/><stop offset="62%" style="stop-color:#06f;stop-opacity:0.0901961"/><stop offset="88%" style="stop-color:#00fffe;stop-opacity:0.168627"/><stop offset="100%" style="stop-color:#b6ffff;stop-opacity:0.8"/></linearGradient><linearGradient id="_Linear36" x1="0" y1="0" x2="1" y2="0" gradientUnits="userSpaceOnUse" gradientTransform="matrix(99.1205,-56.8189,14.3464,392.567,570.555,412.559)"><stop offset="0%" style="stop-color:#513477;stop-opacity:1"/><stop offset="100%" style="stop-color:#7e69aa;stop-opacity:1"/></linearGradient><linearGradient id="_Linear37" x1="0" y1="0" x2="1" y2="0" gradientUnits="userSpaceOnUse" gradientTransform="matrix(5,0,0,5,449.256,358.5)"><stop offset="0%" style="stop-color:#3d3670;stop-opacity:0.314808"/><stop offset="100%" style="stop-color:#b2bbff;stop-opacity:0.314808"/></linearGradient><linearGradient id="_Linear38" x1="0" y1="0" x2="1" y2="0" gradientUnits="userSpaceOnUse" gradientTransform="matrix(-1.94003,2.13793,-2.13793,-1.94003,427.94,237.862)"><stop offset="0%" style="stop-color:#3d3670;stop-opacity:0.15058"/><stop offset="100%" style="stop-color:#b2bbff;stop-opacity:0.15058"/></linearGradient><linearGradient id="_Linear39" x1="0" y1="0" x2="1" y2="0" gradientUnits="userSpaceOnUse" gradientTransform="matrix(3.44003,1.55933,-1.55933,3.44003,488,305)"><stop offset="0%" style="stop-color:#3d3670;stop-opacity:0.5"/><stop offset="100%" style="stop-color:#b2bbff;stop-opacity:0.5"/></linearGradient></defs></svg>